<?xml version="1.0" encoding="UTF-8" standalone="no"?>
<!-- Created with Inkscape (http://www.inkscape.org/) -->

<svg
   xmlns:dc="http://purl.org/dc/elements/1.1/"
   xmlns:cc="http://creativecommons.org/ns#"
   xmlns:rdf="http://www.w3.org/1999/02/22-rdf-syntax-ns#"
   xmlns:svg="http://www.w3.org/2000/svg"
   xmlns="http://www.w3.org/2000/svg"
   xmlns:sodipodi="http://sodipodi.sourceforge.net/DTD/sodipodi-0.dtd"
   xmlns:inkscape="http://www.inkscape.org/namespaces/inkscape"
   width="6.2392278mm"
   height="6.2395806mm"
   viewBox="0 0 22.1075 22.10875"
   id="svg5347"
   version="1.1"
   inkscape:version="0.91 r13725"
   sodipodi:docname="cs.svg">
  <defs
     id="defs5349" />
  <sodipodi:namedview
     id="base"
     pagecolor="#ffffff"
     bordercolor="#666666"
     borderopacity="1.0"
     inkscape:pageopacity="0.0"
     inkscape:pageshadow="2"
     inkscape:zoom="22.4"
     inkscape:cx="0.38707914"
     inkscape:cy="-0.77395377"
     inkscape:document-units="px"
     inkscape:current-layer="layer1"
     showgrid="false"
     fit-margin-top="0"
     fit-margin-left="0"
     fit-margin-right="0"
     fit-margin-bottom="0"
     inkscape:window-width="3840"
     inkscape:window-height="2160"
     inkscape:window-x="0"
     inkscape:window-y="0"
     inkscape:window-maximized="0" />
  <metadata
     id="metadata5352">
    <rdf:RDF>
      <cc:Work
         rdf:about="">
        <dc:format>image/svg+xml</dc:format>
        <dc:type
           rdf:resource="http://purl.org/dc/dcmitype/StillImage" />
        <dc:title></dc:title>
      </cc:Work>
    </rdf:RDF>
  </metadata>
  <g
     inkscape:label="Layer 1"
     inkscape:groupmode="layer"
     id="layer1"
     transform="translate(-248.94625,-747.02224)">
    <path
       inkscape:connector-curvature="0"
       id="path106"
       style="fill:#e4e3dd;fill-opacity:1;fill-rule:nonzero;stroke:none"
       d="m 250.9875,752.83099 c 0.235,0 0.35125,0.1175 0.35125,0.35 l 0,0.16875 c 0,0.24375 -0.11625,0.365 -0.35125,0.365 l -1.69125,0 c -0.23375,0 -0.35,-0.12125 -0.35,-0.365 l 0,-0.16875 c 0,-0.2325 0.11625,-0.35 0.35,-0.35 l 1.69125,0 z m 0,1.6 c 0.235,0 0.35125,0.11875 0.35125,0.3525 l 0,0.1675 c 0,0.24375 -0.11625,0.365 -0.35125,0.365 l -1.69125,0 c -0.23375,0 -0.35,-0.12125 -0.35,-0.365 l 0,-0.1675 c 0,-0.23375 0.11625,-0.3525 0.35,-0.3525 l 1.69125,0 z m 0,1.60125 c 0.235,0 0.35125,0.1175 0.35125,0.35 l 0,0.185 c 0,0.2325 -0.11625,0.35 -0.35125,0.35 l -1.69125,0 c -0.23375,0 -0.35,-0.1175 -0.35,-0.35 l 0,-0.185 c 0,-0.2325 0.11625,-0.35 0.35,-0.35 l 1.69125,0 z m 0,1.60125 c 0.235,0 0.35125,0.1175 0.35125,0.35125 l 0,0.1675 c 0,0.23375 -0.11625,0.35125 -0.35125,0.35125 l -1.69125,0 c -0.23375,0 -0.35,-0.1175 -0.35,-0.35125 l 0,-0.1675 c 0,-0.23375 0.11625,-0.35125 0.35,-0.35125 l 1.69125,0 z m 0,1.60125 c 0.235,0 0.35125,0.11625 0.35125,0.35125 l 0,0.1675 c 0,0.2325 -0.11625,0.35 -0.35125,0.35 l -1.69125,0 c -0.23375,0 -0.35,-0.1175 -0.35,-0.35 l 0,-0.1675 c 0,-0.235 0.11625,-0.35125 0.35,-0.35125 l 1.69125,0 z m 0,1.6 c 0.235,0 0.35125,0.1175 0.35125,0.35125 l 0,0.1675 c 0,0.23375 -0.11625,0.35125 -0.35125,0.35125 l -1.69125,0 c -0.23375,0 -0.35,-0.1175 -0.35,-0.35125 l 0,-0.1675 c 0,-0.23375 0.11625,-0.35125 0.35,-0.35125 l 1.69125,0 z m 0,1.60125 c 0.235,0 0.35125,0.11625 0.35125,0.35125 l 0,0.18375 c 0,0.22375 -0.11625,0.335 -0.35125,0.335 l -1.69125,0 c -0.23375,0 -0.35,-0.11125 -0.35,-0.335 l 0,-0.18375 c 0,-0.235 0.11625,-0.35125 0.35,-0.35125 l 1.69125,0 z m 2.6075,-12.05875 11.8475,0 2.3175,2.30125 0,11.64875 -1.46375,1.4325 -12.59375,0 -1.46375,-1.4325 0,-12.50125 1.35625,-1.44875 z m 13.52375,13.6925 0,-11.1175 c -0.09,-0.0812 -0.4175,-0.4 -0.9825,-0.96 -0.565,-0.5575 -0.8875,-0.87875 -0.9675,-0.96 l -11.2975,0 c -0.0712,0.0812 -0.24,0.25875 -0.505,0.53375 -0.265,0.275 -0.42625,0.4425 -0.4875,0.5025 l 0,11.98375 c 0.0712,0.0825 0.24875,0.26125 0.535,0.5425 0.28375,0.27875 0.46625,0.455 0.54875,0.525 l 12.07375,0 c 0.0613,-0.07 0.23375,-0.24625 0.51875,-0.525 0.28375,-0.28125 0.47375,-0.455 0.56375,-0.525 m -10.3825,-5.18625 c 0.6,0 1.11375,0.21375 1.54,0.6425 0.4275,0.425 0.64125,0.93875 0.64125,1.53875 0,0.60875 -0.21375,1.1275 -0.64125,1.55375 -0.42625,0.42875 -0.94,0.6425 -1.54,0.6425 -0.61,0 -1.1225,-0.21375 -1.54,-0.6425 -0.41625,-0.42625 -0.625,-0.945 -0.625,-1.55375 0,-0.6 0.20875,-1.11375 0.625,-1.53875 0.4175,-0.42875 0.93,-0.6425 1.54,-0.6425 m -1.63125,-9.4675 c -0.23375,0 -0.35,-0.1175 -0.35,-0.35125 l 0,-1.69125 c 0,-0.235 0.11625,-0.35125 0.35,-0.35125 l 0.1825,0 c 0.22375,0 0.33625,0.11625 0.33625,0.35125 l 0,1.69125 c 0,0.23375 -0.1125,0.35125 -0.33625,0.35125 l -0.1825,0 z m 0.1675,17.32 c 0.23375,0 0.35125,0.1175 0.35125,0.35 l 0,1.6775 c 0,0.245 -0.1175,0.3675 -0.35125,0.3675 l -0.1675,0 c -0.23375,0 -0.35,-0.1225 -0.35,-0.3675 l 0,-1.6775 c 0,-0.2325 0.11625,-0.35 0.35,-0.35 l 0.1675,0 z m 1.51125,-4.1325 c 1.04625,0 1.56875,-0.51125 1.56875,-1.53875 0,-1.02625 -0.5225,-1.53875 -1.56875,-1.53875 -1.05875,0 -1.5875,0.5125 -1.5875,1.53875 0,1.0275 0.52875,1.53875 1.5875,1.53875 m -0.41375,-6.0675 -0.64,0 0,-3.705 0.64,0 0,3.705 z m 0.335,-7.12 c -0.23375,0 -0.35,-0.1175 -0.35,-0.35125 l 0,-1.69125 c 0,-0.235 0.11625,-0.35125 0.35,-0.35125 l 0.17,0 c 0.2425,0 0.365,0.11625 0.365,0.35125 l 0,1.69125 c 0,0.23375 -0.1225,0.35125 -0.365,0.35125 l -0.17,0 z m 0.17,17.32 c 0.2425,0 0.365,0.1175 0.365,0.35 l 0,1.6775 c 0,0.245 -0.1225,0.3675 -0.365,0.3675 l -0.17,0 c -0.23375,0 -0.35,-0.1225 -0.35,-0.3675 l 0,-1.6775 c 0,-0.2325 0.11625,-0.35 0.35,-0.35 l 0.17,0 z m 1.43125,-17.32 c -0.23375,0 -0.35,-0.1175 -0.35,-0.35125 l 0,-1.69125 c 0,-0.235 0.11625,-0.35125 0.35,-0.35125 l 0.1675,0 c 0.24375,0 0.3675,0.11625 0.3675,0.35125 l 0,1.69125 c 0,0.23375 -0.12375,0.35125 -0.3675,0.35125 l -0.1675,0 z m 0.1675,17.32 c 0.24375,0 0.3675,0.1175 0.3675,0.35 l 0,1.6775 c 0,0.245 -0.12375,0.3675 -0.3675,0.3675 l -0.1675,0 c -0.23375,0 -0.35,-0.1225 -0.35,-0.3675 l 0,-1.6775 c 0,-0.2325 0.11625,-0.35 0.35,-0.35 l 0.1675,0 z m 1.435,-17.32 c -0.23375,0 -0.35125,-0.1175 -0.35125,-0.35125 l 0,-1.69125 c 0,-0.235 0.1175,-0.35125 0.35125,-0.35125 l 0.1825,0 c 0.23375,0 0.34875,0.11625 0.34875,0.35125 l 0,1.69125 c 0,0.23375 -0.115,0.35125 -0.34875,0.35125 l -0.1825,0 z m 0.1825,17.32 c 0.2225,0 0.335,0.1175 0.335,0.35 l 0,1.6775 c 0,0.245 -0.1125,0.3675 -0.335,0.3675 l -0.1825,0 c -0.23375,0 -0.35125,-0.1225 -0.35125,-0.3675 l 0,-1.6775 c 0,-0.2325 0.1175,-0.35 0.35125,-0.35 l 0.1825,0 z m 2.21125,-14.22625 c 0.60875,0 1.12875,0.21375 1.5625,0.64125 0.43125,0.4275 0.64875,0.935 0.64875,1.52375 0,0.61125 -0.2175,1.1275 -0.64875,1.5475 -0.43375,0.4225 -0.95375,0.635 -1.5625,0.635 -0.62,0 -1.14625,-0.2125 -1.5775,-0.635 -0.43375,-0.42 -0.64875,-0.93625 -0.64875,-1.5475 0,-0.58875 0.215,-1.09625 0.64875,-1.52375 0.43125,-0.4275 0.9575,-0.64125 1.5775,-0.64125 m -0.0475,3.675 c 1.0475,0 1.57125,-0.5025 1.57125,-1.51 0,-1.005 -0.52375,-1.51 -1.57125,-1.51 -1.0375,0 -1.555,0.505 -1.555,1.51 0,1.0075 0.5175,1.51 1.555,1.51 m -0.74625,-6.76875 c -0.23375,0 -0.35125,-0.1175 -0.35125,-0.35125 l 0,-1.69125 c 0,-0.235 0.1175,-0.35125 0.35125,-0.35125 l 0.1825,0 c 0.235,0 0.35,0.11625 0.35,0.35125 l 0,1.69125 c 0,0.23375 -0.115,0.35125 -0.35,0.35125 l -0.1825,0 z m 0.1825,17.32 c 0.235,0 0.35,0.1175 0.35,0.35 l 0,1.6775 c 0,0.245 -0.115,0.3675 -0.35,0.3675 l -0.1825,0 c -0.23375,0 -0.35125,-0.1225 -0.35125,-0.3675 l 0,-1.6775 c 0,-0.2325 0.1175,-0.35 0.35125,-0.35 l 0.1825,0 z m 1.00625,-7.53125 0.64,0 0,3.705 -0.64,0 0,-3.705 z m 0.41375,-9.78875 c -0.23625,0 -0.3525,-0.1175 -0.3525,-0.35125 l 0,-1.69125 c 0,-0.235 0.11625,-0.35125 0.3525,-0.35125 l 0.18125,0 c 0.23375,0 0.35125,0.11625 0.35125,0.35125 l 0,1.69125 c 0,0.23375 -0.1175,0.35125 -0.35125,0.35125 l -0.18125,0 z m 0.18125,17.32 c 0.23375,0 0.35125,0.1175 0.35125,0.35 l 0,1.6775 c 0,0.245 -0.1175,0.3675 -0.35125,0.3675 l -0.18125,0 c -0.23625,0 -0.3525,-0.1225 -0.3525,-0.3675 l 0,-1.6775 c 0,-0.2325 0.11625,-0.35 0.3525,-0.35 l 0.18125,0 z m 1.4175,-17.32 c -0.2325,0 -0.35,-0.1175 -0.35,-0.35125 l 0,-1.69125 c 0,-0.235 0.1175,-0.35125 0.35,-0.35125 l 0.1675,0 c 0.245,0 0.36625,0.11625 0.36625,0.35125 l 0,1.69125 c 0,0.23375 -0.12125,0.35125 -0.36625,0.35125 l -0.1675,0 z m 0.1675,17.32 c 0.23375,0 0.3525,0.1175 0.3525,0.35 l 0,1.6775 c 0,0.245 -0.11875,0.3675 -0.3525,0.3675 l -0.1675,0 c -0.2325,0 -0.35,-0.1225 -0.35,-0.3675 l 0,-1.6775 c 0,-0.2325 0.1175,-0.35 0.35,-0.35 l 0.1675,0 z m 0.0925,-14.21 c 0,-0.325 0.1575,-0.4875 0.4725,-0.4875 0.315,0 0.4725,0.1625 0.4725,0.4875 0,0.315 -0.1575,0.47125 -0.4725,0.47125 -0.315,0 -0.4725,-0.15625 -0.4725,-0.47125 m 5.7175,0.305 c 0.24375,0 0.36625,0.1175 0.36625,0.35 l 0,0.18375 c 0,0.23375 -0.1225,0.35 -0.36625,0.35 l -1.6775,0 c -0.235,0 -0.35,-0.11625 -0.35,-0.35 l 0,-0.18375 c 0,-0.2325 0.115,-0.35 0.35,-0.35 l 1.6775,0 z m 0,1.6 c 0.24375,0 0.36625,0.11875 0.36625,0.3525 l 0,0.1675 c 0,0.24375 -0.1225,0.365 -0.36625,0.365 l -1.6775,0 c -0.235,0 -0.35,-0.12125 -0.35,-0.365 l 0,-0.1675 c 0,-0.23375 0.115,-0.3525 0.35,-0.3525 l 1.6775,0 z m 0,1.60125 c 0.24375,0 0.36625,0.1175 0.36625,0.35 l 0,0.185 c 0,0.2325 -0.1225,0.35 -0.36625,0.35 l -1.6775,0 c -0.235,0 -0.35,-0.1175 -0.35,-0.35 l 0,-0.185 c 0,-0.2325 0.115,-0.35 0.35,-0.35 l 1.6775,0 z m 0,1.60125 c 0.24375,0 0.36625,0.1175 0.36625,0.35125 l 0,0.1825 c 0,0.23375 -0.1225,0.35125 -0.36625,0.35125 l -1.6775,0 c -0.235,0 -0.35,-0.1175 -0.35,-0.35125 l 0,-0.1825 c 0,-0.23375 0.115,-0.35125 0.35,-0.35125 l 1.6775,0 z m 0,1.60125 c 0.24375,0 0.36625,0.11625 0.36625,0.35125 l 0,0.1675 c 0,0.24375 -0.1225,0.365 -0.36625,0.365 l -1.6775,0 c -0.235,0 -0.35,-0.12125 -0.35,-0.365 l 0,-0.1675 c 0,-0.235 0.115,-0.35125 0.35,-0.35125 l 1.6775,0 z m 0,1.6 c 0.24375,0 0.36625,0.1175 0.36625,0.35125 l 0,0.1675 c 0,0.245 -0.1225,0.36625 -0.36625,0.36625 l -1.6775,0 c -0.235,0 -0.35,-0.12125 -0.35,-0.36625 l 0,-0.1675 c 0,-0.23375 0.115,-0.35125 0.35,-0.35125 l 1.6775,0 z m 0,1.60125 c 0.24375,0 0.36625,0.11625 0.36625,0.35125 l 0,0.18375 c 0,0.22375 -0.1225,0.335 -0.36625,0.335 l -1.6775,0 c -0.235,0 -0.35,-0.11125 -0.35,-0.335 l 0,-0.18375 c 0,-0.235 0.115,-0.35125 0.35,-0.35125 l 1.6775,0 z" />
  </g>
</svg>
